<svg id="svg" version="1.1" xmlns="http://www.w3.org/2000/svg" xmlns:xlink="http://www.w3.org/1999/xlink" width="400" height="205" viewBox="0, 0, 400,205"><g id="svgg"><path id="path0" d="" stroke="none" fill="#fc3464" fill-rule="evenodd"></path><path id="path1" d="" stroke="none" fill="#1003464" fill-rule="evenodd"></path><path id="path2" d="" stroke="none" fill="#1003464" fill-rule="evenodd"></path><path id="path3" d="" stroke="none" fill="#1003464" fill-rule="evenodd"></path><path id="path4" d="M68.888 47.376 C 68.888 47.493,68.803 47.537,68.699 47.473 C 68.596 47.409,68.368 47.499,68.194 47.673 C 68.020 47.848,67.828 47.987,67.767 47.983 C 67.235 47.947,67.036 48.005,67.136 48.166 C 67.202 48.273,66.981 48.322,66.629 48.277 C 66.285 48.234,66.049 48.270,66.103 48.358 C 66.157 48.446,66.025 48.669,65.809 48.853 C 65.577 49.052,65.366 49.108,65.293 48.989 C 65.121 48.710,64.737 48.984,64.858 49.299 C 64.914 49.446,64.651 49.702,64.246 49.896 C 63.855 50.082,63.591 50.325,63.659 50.435 C 63.731 50.552,63.628 50.587,63.414 50.519 C 63.084 50.415,63.087 50.437,63.443 50.726 C 63.806 51.022,63.809 51.051,63.479 51.051 C 62.916 51.051,62.504 51.551,62.801 51.873 C 62.965 52.050,62.969 52.094,62.812 52.006 C 62.503 51.833,62.045 52.400,62.239 52.714 C 62.342 52.880,62.303 52.905,62.119 52.791 C 61.924 52.671,61.883 52.716,61.973 52.952 C 62.042 53.132,61.991 53.316,61.859 53.360 C 61.726 53.404,61.616 53.663,61.614 53.937 C 61.611 54.270,61.508 54.412,61.302 54.368 C 61.055 54.315,61.045 54.353,61.251 54.562 C 61.392 54.706,61.506 55.058,61.504 55.346 C 61.501 55.773,61.460 55.812,61.281 55.561 C 61.104 55.314,61.081 55.344,61.162 55.715 C 61.218 55.969,61.193 56.176,61.106 56.176 C 61.019 56.176,60.959 56.684,60.971 57.304 C 60.984 57.924,61.053 58.432,61.124 58.432 C 61.196 58.432,61.240 58.847,61.223 59.354 C 61.204 59.941,61.280 60.277,61.433 60.277 C 61.565 60.277,61.630 60.445,61.576 60.650 C 61.522 60.855,61.623 61.143,61.800 61.290 C 61.977 61.437,62.122 61.727,62.122 61.935 C 62.122 62.143,62.307 62.411,62.532 62.532 C 62.780 62.665,62.942 62.961,62.942 63.282 C 62.942 63.735,62.988 63.774,63.256 63.552 C 63.531 63.323,63.545 63.358,63.364 63.834 C 63.196 64.275,63.216 64.377,63.472 64.377 C 63.645 64.377,63.725 64.476,63.650 64.597 C 63.575 64.719,63.718 65.035,63.967 65.300 C 64.216 65.565,64.359 65.881,64.284 66.002 C 64.209 66.123,64.229 66.222,64.327 66.222 C 64.425 66.222,64.632 66.545,64.787 66.940 C 64.942 67.335,65.182 67.658,65.320 67.658 C 65.465 67.658,65.548 67.870,65.516 68.160 C 65.484 68.452,65.586 68.709,65.761 68.776 C 65.925 68.839,66.010 69.020,65.950 69.178 C 65.839 69.466,66.474 70.208,66.666 70.016 C 66.766 69.916,66.804 70.076,66.886 70.938 C 66.908 71.164,66.998 71.348,67.086 71.348 C 67.175 71.348,67.248 71.477,67.248 71.634 C 67.248 71.791,67.396 71.976,67.576 72.045 C 67.768 72.119,67.855 72.302,67.785 72.485 C 67.717 72.663,67.796 72.849,67.969 72.915 C 68.136 72.980,68.273 73.161,68.273 73.318 C 68.273 73.475,68.371 73.603,68.492 73.603 C 68.622 73.603,68.654 73.781,68.570 74.044 C 68.458 74.399,68.497 74.460,68.772 74.354 C 68.973 74.277,69.063 74.306,68.989 74.426 C 68.920 74.537,68.936 74.744,69.024 74.885 C 69.112 75.026,69.204 75.278,69.230 75.445 C 69.255 75.612,69.368 75.779,69.480 75.817 C 69.593 75.854,69.634 76.017,69.572 76.179 C 69.503 76.358,69.586 76.474,69.782 76.474 C 69.985 76.474,70.061 76.588,69.987 76.781 C 69.922 76.950,69.971 77.089,70.096 77.089 C 70.221 77.089,70.323 77.230,70.323 77.403 C 70.323 77.744,70.901 78.738,71.241 78.982 C 71.356 79.065,71.367 79.134,71.265 79.136 C 71.163 79.137,71.226 79.300,71.404 79.498 C 71.713 79.839,71.286 79.854,62.675 79.814 C 54.771 79.776,53.598 79.810,53.447 80.081 C 53.311 80.324,53.209 80.339,52.982 80.150 C 52.748 79.956,52.690 79.984,52.688 80.293 C 52.685 80.616,52.653 80.628,52.486 80.369 C 52.353 80.164,52.286 80.147,52.284 80.318 C 52.282 80.459,52.066 80.574,51.804 80.574 C 51.542 80.574,51.111 80.805,50.846 81.087 C 50.581 81.369,50.242 81.599,50.092 81.599 C 49.943 81.599,49.821 81.743,49.821 81.919 C 49.821 82.095,49.733 82.184,49.625 82.118 C 49.518 82.051,49.324 82.389,49.195 82.868 C 49.066 83.346,48.771 83.903,48.539 84.104 C 48.307 84.305,48.176 84.470,48.246 84.470 C 48.317 84.470,48.288 84.700,48.180 84.982 C 48.038 85.355,48.054 85.496,48.237 85.501 C 48.378 85.504,48.339 85.594,48.148 85.705 C 47.814 85.901,47.843 86.725,48.185 86.725 C 48.274 86.725,48.299 86.909,48.240 87.135 C 48.171 87.396,48.234 87.546,48.413 87.548 C 48.611 87.550,48.624 87.595,48.455 87.702 C 48.183 87.875,48.331 88.980,48.626 88.980 C 48.733 88.980,48.763 89.072,48.693 89.185 C 48.623 89.298,48.661 89.390,48.777 89.390 C 48.893 89.390,48.929 89.544,48.857 89.731 C 48.778 89.937,48.809 90.021,48.934 89.944 C 49.049 89.873,49.357 90.273,49.619 90.833 C 49.881 91.392,50.188 91.850,50.300 91.850 C 50.412 91.850,50.443 91.911,50.369 91.985 C 50.295 92.059,50.337 92.243,50.462 92.394 C 50.587 92.545,50.638 92.862,50.576 93.100 C 50.514 93.337,50.514 93.480,50.576 93.418 C 50.778 93.217,51.258 93.860,51.387 94.504 C 51.456 94.849,51.639 95.131,51.794 95.131 C 51.949 95.131,52.076 95.269,52.076 95.438 C 52.076 95.607,52.165 95.746,52.274 95.746 C 52.384 95.746,52.424 95.875,52.363 96.033 C 52.302 96.190,52.353 96.381,52.475 96.457 C 52.598 96.532,52.645 96.680,52.580 96.785 C 52.515 96.890,52.559 96.976,52.679 96.976 C 52.798 96.976,52.896 97.114,52.896 97.283 C 52.896 97.453,52.994 97.591,53.113 97.591 C 53.232 97.591,53.274 97.682,53.205 97.794 C 53.135 97.906,53.296 98.215,53.562 98.480 C 53.827 98.746,54.005 99.082,53.956 99.228 C 53.899 99.401,53.960 99.436,54.132 99.330 C 54.326 99.210,54.365 99.284,54.280 99.609 C 54.217 99.852,54.225 100.052,54.299 100.053 C 54.373 100.054,54.538 100.261,54.665 100.514 C 55.785 102.740,55.965 103.176,55.843 103.374 C 55.758 103.510,55.797 103.542,55.940 103.454 C 56.080 103.367,56.176 103.438,56.176 103.627 C 56.176 103.803,56.292 103.924,56.433 103.895 C 56.576 103.867,56.662 104.002,56.629 104.203 C 56.590 104.433,56.700 104.563,56.936 104.565 C 57.249 104.568,57.258 104.598,56.996 104.767 C 56.807 104.889,56.784 104.967,56.936 104.969 C 57.072 104.970,57.243 105.294,57.317 105.688 C 57.391 106.081,57.534 106.353,57.634 106.291 C 57.734 106.229,57.817 106.363,57.817 106.590 C 57.817 106.816,57.961 107.082,58.137 107.181 C 58.313 107.280,58.482 107.528,58.512 107.732 C 58.542 107.937,58.738 108.230,58.948 108.383 C 59.229 108.588,59.252 108.664,59.035 108.669 C 58.833 108.674,58.886 108.799,59.200 109.061 C 59.454 109.272,59.662 109.546,59.662 109.669 C 59.662 109.792,59.759 109.892,59.879 109.892 C 59.998 109.892,60.038 109.986,59.968 110.100 C 59.851 110.289,60.802 112.520,61.102 112.763 C 61.248 112.881,61.561 113.587,61.601 113.890 C 61.616 114.003,61.746 114.070,61.890 114.039 C 62.034 114.008,62.094 114.077,62.023 114.193 C 61.951 114.308,61.990 114.403,62.110 114.403 C 62.229 114.403,62.327 114.501,62.327 114.620 C 62.327 114.739,62.218 114.770,62.085 114.687 C 61.952 114.605,62.093 114.866,62.400 115.268 C 62.706 115.670,62.943 116.078,62.925 116.175 C 62.848 116.601,62.963 116.863,63.228 116.863 C 63.535 116.863,63.853 117.419,63.786 117.837 C 63.763 117.978,63.887 118.093,64.061 118.093 C 64.235 118.093,64.359 118.162,64.337 118.247 C 64.258 118.544,64.612 119.323,64.826 119.323 C 64.969 119.323,64.964 119.418,64.809 119.605 C 64.625 119.826,64.690 119.962,65.109 120.236 C 65.403 120.429,65.590 120.640,65.524 120.705 C 65.459 120.770,65.520 120.965,65.660 121.138 C 65.862 121.387,65.862 121.421,65.661 121.300 C 65.488 121.196,65.446 121.249,65.529 121.466 C 65.596 121.641,65.734 121.784,65.834 121.784 C 65.935 121.784,66.017 121.922,66.017 122.091 C 66.017 122.260,66.108 122.399,66.219 122.399 C 66.329 122.399,66.478 122.629,66.548 122.911 C 66.619 123.193,66.765 123.424,66.872 123.424 C 66.979 123.424,67.016 123.506,66.953 123.607 C 66.891 123.708,66.971 123.841,67.130 123.902 C 67.317 123.974,67.378 124.178,67.301 124.471 C 67.207 124.832,67.251 124.901,67.512 124.802 C 67.735 124.716,67.807 124.764,67.736 124.951 C 67.677 125.103,67.728 125.289,67.849 125.363 C 67.969 125.437,68.068 125.659,68.068 125.856 C 68.068 126.053,68.333 126.578,68.658 127.023 C 68.983 127.468,69.313 128.132,69.392 128.498 C 69.471 128.865,69.664 129.165,69.820 129.165 C 70.002 129.165,70.057 129.288,69.974 129.506 C 69.892 129.720,69.925 129.797,70.062 129.712 C 70.302 129.564,70.528 130.002,70.528 130.616 C 70.528 130.833,70.620 131.010,70.733 131.010 C 70.846 131.010,70.938 131.154,70.938 131.329 C 70.938 131.519,71.034 131.589,71.175 131.503 C 71.308 131.420,71.356 131.446,71.285 131.561 C 71.215 131.673,71.431 132.264,71.763 132.874 C 72.096 133.484,72.433 134.121,72.513 134.290 C 72.592 134.459,72.778 134.720,72.925 134.869 C 73.073 135.018,73.193 135.275,73.193 135.441 C 73.193 135.607,73.383 135.946,73.614 136.194 C 73.846 136.443,73.993 136.808,73.941 137.006 C 73.889 137.204,73.930 137.314,74.032 137.251 C 74.218 137.136,74.301 137.428,74.229 137.950 C 74.208 138.102,74.289 138.166,74.410 138.092 C 74.611 137.967,74.723 138.242,74.644 138.672 C 74.626 138.770,74.759 138.794,74.940 138.725 C 75.174 138.635,75.251 138.702,75.208 138.958 C 75.174 139.155,75.387 139.639,75.681 140.033 C 76.170 140.688,76.590 141.755,76.507 142.132 C 76.489 142.217,76.551 142.286,76.646 142.286 C 76.741 142.286,77.036 142.724,77.302 143.260 C 77.568 143.795,77.914 144.389,78.072 144.580 C 78.230 144.770,78.298 145.024,78.224 145.143 C 78.150 145.263,78.187 145.361,78.307 145.361 C 78.426 145.361,78.524 145.512,78.524 145.697 C 78.524 145.881,78.731 146.227,78.985 146.465 C 79.239 146.704,79.456 147.014,79.467 147.155 C 79.515 147.751,79.559 147.839,79.754 147.719 C 79.867 147.649,79.959 147.768,79.959 147.983 C 79.959 148.198,80.282 148.706,80.677 149.113 C 81.071 149.519,81.394 149.796,81.394 149.728 C 81.394 149.660,81.556 149.780,81.753 149.994 C 81.950 150.209,82.296 150.417,82.522 150.456 C 82.747 150.496,82.997 150.633,83.077 150.762 C 83.396 151.276,87.851 150.981,88.263 150.418 C 88.400 150.230,88.618 150.077,88.746 150.077 C 88.875 150.077,88.980 149.979,88.980 149.860 C 88.980 149.740,89.072 149.700,89.185 149.769 C 89.298 149.839,89.390 149.793,89.390 149.667 C 89.390 149.541,89.481 149.494,89.593 149.563 C 89.713 149.637,89.741 149.545,89.660 149.336 C 89.575 149.113,89.605 149.034,89.744 149.120 C 89.864 149.194,90.180 149.074,90.445 148.852 C 90.777 148.576,90.833 148.448,90.626 148.444 C 90.423 148.439,90.475 148.331,90.783 148.115 C 91.036 147.938,91.189 147.708,91.124 147.603 C 91.059 147.498,91.104 147.412,91.223 147.412 C 91.343 147.412,91.440 147.284,91.440 147.129 C 91.440 146.974,91.578 146.733,91.746 146.593 C 91.913 146.454,92.006 146.268,91.952 146.180 C 91.897 146.092,91.991 145.966,92.161 145.901 C 92.330 145.836,92.457 145.711,92.443 145.623 C 92.367 145.160,92.516 144.790,92.978 144.292 C 93.260 143.988,93.491 143.562,93.491 143.345 C 93.491 143.129,93.633 142.833,93.807 142.688 C 93.982 142.544,94.082 142.315,94.030 142.181 C 93.979 142.046,94.151 141.704,94.413 141.421 C 94.676 141.138,94.921 140.687,94.959 140.417 C 94.997 140.148,95.079 139.882,95.141 139.826 C 95.444 139.549,96.120 138.435,96.261 137.981 C 96.348 137.699,96.577 137.330,96.769 137.160 C 96.962 136.991,97.184 136.504,97.263 136.078 C 97.342 135.652,97.484 135.351,97.578 135.410 C 97.718 135.496,97.898 135.112,98.008 134.495 C 98.018 134.439,98.209 134.198,98.433 133.959 C 98.657 133.721,98.813 133.398,98.779 133.242 C 98.746 133.085,98.824 132.977,98.954 133.002 C 99.094 133.028,99.146 132.881,99.083 132.640 C 98.931 132.058,99.520 132.323,99.814 132.969 C 99.940 133.244,100.128 133.470,100.233 133.470 C 100.337 133.470,100.378 133.642,100.323 133.852 C 100.263 134.081,100.353 134.283,100.547 134.358 C 100.726 134.426,100.871 134.716,100.871 135.001 C 100.871 135.287,100.961 135.520,101.070 135.520 C 101.179 135.520,101.215 135.659,101.151 135.828 C 101.076 136.023,101.153 136.135,101.362 136.135 C 101.543 136.135,101.677 136.205,101.659 136.289 C 101.621 136.470,101.917 137.218,102.087 137.366 C 102.314 137.564,102.922 138.837,102.922 139.115 C 102.922 139.269,103.065 139.476,103.240 139.574 C 103.416 139.672,103.695 140.147,103.862 140.630 C 104.196 141.600,104.626 142.139,104.889 141.917 C 104.984 141.838,104.925 141.952,104.760 142.171 C 104.491 142.526,104.495 142.555,104.795 142.442 C 105.050 142.347,105.106 142.412,105.027 142.711 C 104.962 142.963,105.029 143.106,105.212 143.106 C 105.467 143.106,105.558 143.363,105.634 144.294 C 105.646 144.440,105.783 144.510,105.939 144.450 C 106.104 144.387,106.167 144.431,106.090 144.557 C 106.017 144.675,106.127 144.967,106.336 145.204 C 106.584 145.488,106.609 145.576,106.407 145.460 C 106.152 145.313,106.143 145.336,106.354 145.597 C 106.494 145.770,106.548 145.972,106.474 146.047 C 106.399 146.121,106.485 146.181,106.664 146.181 C 106.859 146.181,107.044 146.428,107.125 146.797 C 107.199 147.135,107.345 147.412,107.448 147.412 C 107.552 147.412,107.618 147.481,107.595 147.565 C 107.543 147.755,108.221 149.052,108.372 149.052 C 108.432 149.052,108.425 148.961,108.356 148.849 C 108.283 148.731,108.370 148.700,108.566 148.775 C 108.805 148.867,108.832 148.947,108.658 149.054 C 108.480 149.164,108.474 149.315,108.634 149.614 C 108.754 149.839,108.803 150.073,108.742 150.134 C 108.681 150.195,108.813 150.302,109.035 150.372 C 109.434 150.499,109.813 151.307,109.473 151.307 C 109.376 151.307,109.525 151.554,109.805 151.855 C 110.084 152.156,110.365 152.614,110.430 152.873 C 110.495 153.131,110.725 153.399,110.941 153.467 C 111.157 153.536,111.281 153.677,111.216 153.782 C 111.109 153.956,112.456 154.894,112.814 154.895 C 112.899 154.895,112.945 154.950,112.916 155.017 C 112.816 155.257,113.434 155.818,113.798 155.818 C 114.002 155.818,114.307 155.956,114.476 156.125 C 114.645 156.294,114.929 156.433,115.106 156.433 C 115.283 156.433,115.428 156.526,115.428 156.639 C 115.428 156.761,115.807 156.807,116.358 156.750 C 116.923 156.691,117.240 156.731,117.166 156.851 C 116.991 157.133,117.482 157.152,119.631 156.947 C 121.438 156.775,121.559 156.746,121.970 156.394 C 122.216 156.183,122.402 156.134,122.446 156.268 C 122.491 156.400,122.652 156.355,122.855 156.153 C 123.039 155.968,123.288 155.818,123.409 155.818 C 123.706 155.818,124.445 155.062,124.295 154.912 C 124.229 154.846,124.391 154.792,124.654 154.792 C 124.917 154.792,125.075 154.735,125.005 154.665 C 124.773 154.433,125.435 153.970,125.800 154.110 C 126.044 154.204,126.109 154.171,126.007 154.006 C 125.924 153.871,125.991 153.713,126.160 153.649 C 126.326 153.585,126.518 153.309,126.587 153.035 C 126.656 152.761,126.803 152.537,126.913 152.537 C 127.024 152.537,127.114 152.399,127.114 152.230 C 127.114 152.060,127.207 151.922,127.319 151.922 C 127.432 151.922,127.524 151.784,127.524 151.615 C 127.524 151.445,127.622 151.307,127.741 151.307 C 127.861 151.307,127.903 151.217,127.835 151.108 C 127.768 150.998,127.865 150.676,128.051 150.392 C 128.237 150.108,128.338 149.741,128.275 149.576 C 128.194 149.366,128.258 149.315,128.491 149.405 C 128.702 149.485,128.771 149.450,128.682 149.306 C 128.606 149.182,128.638 149.021,128.754 148.949 C 128.871 148.877,128.920 148.743,128.863 148.651 C 128.806 148.559,128.943 148.435,129.168 148.376 C 129.423 148.310,129.625 148.031,129.704 147.635 C 129.774 147.287,129.904 147.002,129.994 147.002 C 130.084 147.002,130.218 146.725,130.292 146.386 C 130.366 146.048,130.497 145.771,130.583 145.771 C 130.669 145.771,130.864 145.393,131.017 144.930 C 131.170 144.466,131.415 144.042,131.561 143.985 C 131.708 143.929,131.781 143.808,131.724 143.716 C 131.667 143.624,131.751 143.419,131.909 143.261 C 132.068 143.102,132.410 142.472,132.669 141.860 C 132.928 141.249,133.266 140.672,133.419 140.578 C 133.641 140.443,133.646 140.346,133.447 140.105 C 133.246 139.863,133.251 139.815,133.474 139.865 C 133.627 139.900,133.901 139.622,134.084 139.247 C 134.267 138.872,134.550 138.481,134.712 138.379 C 134.907 138.256,134.922 138.191,134.758 138.189 C 134.620 138.187,134.561 138.048,134.626 137.879 C 134.690 137.711,134.841 137.634,134.962 137.708 C 135.098 137.792,135.131 137.716,135.049 137.502 C 134.977 137.314,135.017 137.160,135.139 137.160 C 135.260 137.160,135.304 137.017,135.237 136.842 C 135.170 136.667,135.189 136.570,135.280 136.626 C 135.371 136.682,135.612 136.446,135.816 136.101 C 136.103 135.614,136.128 135.438,135.929 135.314 C 135.745 135.201,135.796 135.115,136.108 135.016 C 136.490 134.895,136.597 134.674,136.527 134.155 C 136.517 134.080,136.652 133.939,136.828 133.841 C 137.004 133.742,137.307 133.319,137.502 132.900 C 137.697 132.480,137.933 132.084,138.026 132.020 C 138.119 131.955,138.233 131.706,138.279 131.466 C 138.325 131.227,138.558 130.766,138.797 130.444 C 139.035 130.121,139.245 129.662,139.263 129.423 C 139.281 129.184,139.362 129.029,139.443 129.079 C 139.595 129.173,139.939 128.365,139.866 128.088 C 139.844 128.004,139.915 127.934,140.025 127.934 C 140.134 127.934,140.394 127.564,140.602 127.110 C 140.809 126.657,141.058 126.357,141.153 126.444 C 141.249 126.531,141.258 126.482,141.174 126.337 C 141.082 126.178,141.252 125.765,141.593 125.311 C 141.908 124.894,142.008 124.678,141.816 124.833 C 141.358 125.201,141.365 124.990,141.825 124.530 C 142.022 124.332,142.196 124.118,142.211 124.054 C 142.354 123.445,142.574 123.014,142.742 123.014 C 142.854 123.014,142.893 122.878,142.830 122.713 C 142.763 122.539,142.976 122.150,143.337 121.789 C 143.679 121.447,143.920 121.052,143.873 120.911 C 143.825 120.771,143.970 120.495,144.195 120.297 C 144.590 119.951,144.590 119.938,144.214 119.932 C 143.841 119.926,143.842 119.915,144.234 119.691 C 144.744 119.398,145.151 118.866,145.024 118.659 C 144.971 118.574,145.025 118.503,145.144 118.503 C 145.264 118.503,145.361 118.319,145.361 118.093 C 145.361 117.868,145.463 117.683,145.588 117.683 C 145.713 117.683,145.762 117.545,145.697 117.376 C 145.632 117.207,145.662 117.068,145.764 117.068 C 145.866 117.068,146.008 116.882,146.080 116.655 C 146.152 116.428,146.306 116.301,146.422 116.372 C 146.551 116.452,146.543 116.336,146.402 116.072 C 146.205 115.704,146.222 115.661,146.518 115.775 C 146.743 115.861,146.815 115.828,146.723 115.680 C 146.646 115.555,146.786 115.262,147.036 115.030 C 147.285 114.798,147.418 114.608,147.331 114.608 C 147.244 114.608,147.365 114.297,147.600 113.917 C 147.835 113.538,148.027 113.076,148.027 112.892 C 148.027 112.708,148.119 112.558,148.232 112.558 C 148.344 112.558,148.437 112.419,148.437 112.250 C 148.437 112.081,148.534 111.943,148.654 111.943 C 148.773 111.943,148.825 111.868,148.768 111.776 C 148.711 111.684,148.844 111.338,149.062 111.007 C 149.280 110.676,149.460 110.286,149.460 110.140 C 149.462 109.918,150.142 108.802,150.487 108.457 C 150.543 108.401,150.621 108.170,150.659 107.945 C 150.698 107.719,150.813 107.504,150.916 107.466 C 151.018 107.429,151.102 107.242,151.102 107.051 C 151.102 106.859,151.299 106.534,151.540 106.328 C 151.895 106.024,151.924 105.919,151.694 105.773 C 151.537 105.674,151.507 105.592,151.627 105.590 C 152.038 105.584,152.742 104.751,152.742 104.271 C 152.742 104.008,152.881 103.677,153.050 103.537 C 153.219 103.396,153.357 103.103,153.357 102.884 C 153.357 102.666,153.450 102.544,153.562 102.614 C 153.675 102.684,153.767 102.597,153.767 102.421 C 153.767 102.245,153.870 102.101,153.996 102.101 C 154.124 102.101,154.178 101.921,154.118 101.691 C 154.059 101.465,154.094 101.333,154.196 101.396 C 154.299 101.459,154.382 101.367,154.382 101.191 C 154.382 101.015,154.472 100.871,154.581 100.871 C 154.690 100.871,154.727 100.734,154.662 100.566 C 154.595 100.390,154.687 100.205,154.880 100.131 C 155.097 100.048,155.172 99.867,155.092 99.617 C 155.023 99.400,155.068 99.231,155.194 99.231 C 155.317 99.231,155.505 99.001,155.613 98.719 C 155.720 98.437,155.893 98.206,155.998 98.206 C 156.103 98.206,156.141 98.022,156.082 97.796 C 156.023 97.570,156.068 97.386,156.181 97.386 C 156.295 97.386,156.446 97.155,156.517 96.873 C 156.588 96.591,156.736 96.361,156.847 96.361 C 156.957 96.361,157.048 96.222,157.048 96.053 C 157.048 95.884,157.145 95.746,157.265 95.746 C 157.384 95.746,157.431 95.664,157.370 95.564 C 157.308 95.464,157.399 95.265,157.572 95.121 C 157.745 94.977,157.839 94.736,157.781 94.585 C 157.723 94.434,157.765 94.311,157.874 94.311 C 157.983 94.311,158.073 94.169,158.073 93.997 C 158.073 93.824,158.211 93.630,158.380 93.565 C 158.549 93.500,158.688 93.279,158.688 93.075 C 158.688 92.636,159.333 91.443,159.571 91.442 C 159.663 91.441,159.688 91.360,159.627 91.262 C 159.566 91.164,159.737 90.828,160.005 90.515 C 160.274 90.203,160.547 89.677,160.613 89.347 C 160.695 88.941,160.817 88.796,160.992 88.897 C 161.134 88.979,161.186 88.974,161.107 88.887 C 161.028 88.799,161.202 88.273,161.492 87.718 C 161.782 87.162,161.968 86.656,161.904 86.592 C 161.841 86.529,162.024 86.258,162.312 85.991 C 162.612 85.713,162.787 85.376,162.720 85.203 C 162.642 84.998,162.701 84.938,162.904 85.015 C 163.112 85.095,163.166 85.033,163.080 84.810 C 163.011 84.629,163.143 84.291,163.386 84.031 C 163.621 83.779,163.813 83.451,163.813 83.303 C 163.813 83.155,163.917 83.034,164.044 83.034 C 164.201 83.034,164.192 82.936,164.015 82.722 C 163.802 82.466,163.808 82.430,164.049 82.522 C 164.292 82.616,164.875 81.600,164.932 80.984 C 164.937 80.928,165.149 80.591,165.403 80.235 C 165.656 79.879,165.864 79.505,165.864 79.404 C 165.864 79.303,166.131 78.856,166.459 78.410 C 167.084 77.560,167.094 77.537,167.094 76.884 C 167.094 76.606,167.230 76.474,167.516 76.474 C 167.751 76.474,167.881 76.381,167.809 76.264 C 167.650 76.008,168.893 73.398,169.173 73.398 C 169.283 73.398,169.326 73.321,169.268 73.227 C 169.210 73.134,169.390 72.722,169.668 72.312 C 169.946 71.903,170.150 71.449,170.120 71.304 C 170.091 71.159,170.182 71.064,170.323 71.092 C 170.464 71.120,170.568 71.074,170.555 70.989 C 170.499 70.635,170.595 70.336,170.848 70.081 C 171.248 69.678,171.827 68.445,171.539 68.610 C 171.406 68.686,171.493 68.526,171.732 68.254 C 172.501 67.383,172.693 66.857,172.387 66.466 C 172.147 66.159,172.155 66.150,172.458 66.387 C 172.788 66.644,173.216 66.072,173.080 65.556 C 173.058 65.472,173.117 65.402,173.212 65.402 C 173.476 65.402,173.883 64.378,173.727 64.106 C 173.651 63.973,173.661 63.929,173.749 64.009 C 173.989 64.225,174.531 63.591,174.400 63.247 C 174.333 63.075,174.455 62.857,174.687 62.733 C 174.909 62.615,175.090 62.382,175.090 62.217 C 175.090 62.052,175.190 61.917,175.312 61.917 C 175.434 61.917,175.495 61.802,175.448 61.661 C 175.400 61.520,175.508 61.282,175.687 61.133 C 175.866 60.984,175.897 60.920,175.756 60.991 C 175.615 61.063,175.500 61.023,175.500 60.904 C 175.500 60.785,175.625 60.687,175.779 60.687 C 176.044 60.687,176.370 59.234,176.365 58.073 C 176.364 57.819,176.440 57.611,176.535 57.611 C 176.629 57.611,176.671 57.427,176.627 57.201 C 176.584 56.976,176.647 56.791,176.767 56.791 C 176.904 56.791,176.890 56.677,176.728 56.482 C 176.587 56.312,176.461 55.770,176.447 55.278 C 176.432 54.722,176.337 54.416,176.198 54.470 C 176.068 54.520,175.965 54.298,175.955 53.944 C 175.946 53.607,175.820 53.118,175.675 52.858 C 175.531 52.597,175.432 52.314,175.456 52.230 C 175.480 52.145,175.407 52.076,175.295 52.076 C 175.182 52.076,175.090 51.891,175.090 51.666 C 175.090 51.440,174.982 51.256,174.851 51.256 C 174.719 51.256,174.670 51.197,174.742 51.125 C 174.921 50.946,173.431 49.603,173.208 49.741 C 173.110 49.801,173.055 49.729,173.086 49.580 C 173.117 49.430,173.027 49.331,172.886 49.359 C 172.745 49.387,172.629 49.289,172.629 49.139 C 172.629 48.801,170.929 47.932,170.433 48.016 C 170.231 48.050,170.086 47.975,170.109 47.849 C 170.132 47.723,169.993 47.621,169.801 47.621 C 169.097 47.622,168.918 47.561,169.041 47.362 C 169.124 47.227,152.185 47.159,119.027 47.160 C 84.407 47.162,68.888 47.229,68.888 47.376 M286.146 78.659 C 286.072 78.733,285.572 78.871,285.035 78.967 C 283.959 79.158,283.971 79.155,282.885 79.523 C 282.464 79.666,282.011 79.716,281.879 79.634 C 281.718 79.535,281.693 79.575,281.805 79.755 C 281.928 79.954,281.860 79.995,281.543 79.912 C 281.270 79.840,280.944 79.959,280.644 80.238 C 280.385 80.479,280.099 80.677,280.008 80.677 C 279.916 80.677,279.776 80.781,279.695 80.909 C 279.615 81.037,279.364 81.179,279.139 81.225 C 278.909 81.271,278.741 81.458,278.756 81.650 C 278.771 81.839,278.725 81.987,278.653 81.979 C 278.213 81.931,277.592 82.305,277.690 82.559 C 277.751 82.720,277.714 82.797,277.608 82.731 C 277.367 82.582,276.742 83.741,276.943 83.964 C 277.023 84.053,276.996 84.074,276.884 84.011 C 276.771 83.949,276.560 84.026,276.414 84.183 C 276.269 84.341,276.223 84.471,276.312 84.473 C 276.401 84.474,276.381 84.544,276.269 84.626 C 275.932 84.874,275.529 85.703,275.650 85.899 C 275.712 85.999,275.664 86.142,275.544 86.216 C 275.391 86.311,275.393 86.432,275.551 86.622 C 275.716 86.821,275.710 86.934,275.529 87.046 C 275.360 87.150,275.334 87.108,275.447 86.910 C 275.582 86.674,275.560 86.670,275.328 86.885 C 275.153 87.048,275.016 87.730,274.968 88.679 C 274.926 89.521,274.816 90.210,274.725 90.210 C 274.634 90.210,274.548 95.523,274.535 102.016 C 274.519 109.580,274.582 113.777,274.709 113.699 C 274.818 113.631,274.967 113.672,275.040 113.790 C 275.112 113.907,275.049 113.978,274.900 113.947 C 274.703 113.906,274.637 114.144,274.659 114.813 C 274.703 116.138,274.817 117.067,274.936 117.068 C 274.992 117.068,275.049 117.322,275.062 117.632 C 275.136 119.435,275.255 119.945,275.629 120.065 C 275.879 120.145,275.933 120.239,275.784 120.331 C 275.539 120.483,275.913 121.574,276.211 121.577 C 276.292 121.578,276.308 121.709,276.247 121.868 C 276.181 122.040,276.303 122.210,276.549 122.288 C 276.778 122.360,277.064 122.732,277.194 123.126 C 277.323 123.515,277.565 123.834,277.732 123.834 C 277.899 123.834,277.978 123.926,277.909 124.039 C 277.795 124.223,278.064 124.333,278.473 124.268 C 278.557 124.255,278.626 124.377,278.626 124.539 C 278.626 124.702,278.733 124.901,278.863 124.981 C 279.022 125.080,279.045 125.033,278.932 124.839 C 278.841 124.681,278.995 124.760,279.275 125.015 C 279.555 125.269,279.847 125.416,279.923 125.339 C 279.999 125.263,280.062 125.314,280.062 125.452 C 280.062 125.590,280.154 125.646,280.267 125.577 C 280.379 125.507,280.472 125.599,280.472 125.782 C 280.472 125.964,280.556 126.061,280.660 125.997 C 280.764 125.933,280.972 126.004,281.123 126.155 C 281.274 126.306,281.518 126.390,281.665 126.341 C 281.812 126.291,282.055 126.419,282.205 126.624 C 282.436 126.940,282.528 126.955,282.807 126.723 C 283.087 126.490,283.137 126.499,283.137 126.782 C 283.137 126.992,283.310 127.114,283.608 127.114 C 283.868 127.114,284.204 127.230,284.356 127.371 C 284.577 127.576,284.603 127.576,284.487 127.371 C 284.312 127.060,284.809 127.023,285.110 127.324 C 285.225 127.440,285.663 127.547,286.082 127.563 C 286.501 127.579,286.895 127.673,286.957 127.773 C 287.018 127.873,287.191 127.853,287.340 127.729 C 287.530 127.571,287.651 127.569,287.746 127.723 C 287.820 127.843,287.971 127.885,288.081 127.817 C 288.191 127.749,289.706 127.694,291.448 127.695 C 293.273 127.696,294.666 127.613,294.737 127.498 C 294.811 127.377,294.953 127.373,295.098 127.486 C 295.482 127.787,296.520 127.987,296.361 127.729 C 296.269 127.581,296.399 127.552,296.754 127.641 C 297.045 127.714,297.283 127.695,297.283 127.598 C 297.283 127.501,297.923 127.446,298.705 127.476 C 299.505 127.506,300.182 127.439,300.255 127.322 C 300.325 127.208,300.493 127.116,300.627 127.117 C 300.774 127.119,300.749 127.200,300.564 127.319 C 300.395 127.429,300.353 127.519,300.472 127.521 C 300.590 127.523,300.788 127.423,300.912 127.299 C 301.036 127.175,301.608 127.068,302.183 127.060 C 302.758 127.053,303.229 126.960,303.229 126.853 C 303.229 126.747,303.467 126.720,303.759 126.793 C 304.080 126.873,304.240 126.848,304.166 126.727 C 304.098 126.618,304.213 126.475,304.420 126.409 C 304.765 126.300,304.802 125.979,304.848 122.683 C 304.890 119.736,304.850 119.106,304.628 119.239 C 304.426 119.361,304.430 119.312,304.647 119.045 C 304.904 118.728,304.887 118.675,304.493 118.572 C 304.249 118.508,304.049 118.351,304.049 118.223 C 304.049 118.054,301.913 117.996,296.163 118.010 C 290.870 118.024,288.320 117.962,288.406 117.822 C 288.486 117.693,288.393 117.668,288.164 117.756 C 287.947 117.839,287.656 117.777,287.464 117.607 C 287.283 117.447,286.961 117.283,286.749 117.243 C 286.477 117.192,286.348 116.968,286.310 116.479 C 286.280 116.098,286.131 115.707,285.978 115.610 C 285.746 115.464,285.748 115.434,285.988 115.431 C 286.220 115.429,286.212 115.358,285.947 115.065 C 285.737 114.833,285.682 114.598,285.794 114.417 C 285.890 114.260,285.916 113.994,285.851 113.824 C 285.774 113.623,285.816 113.567,285.972 113.664 C 286.152 113.775,286.212 112.981,286.212 110.520 L 286.212 107.227 294.577 107.227 C 300.985 107.227,303.007 107.167,303.218 106.971 C 303.434 106.771,303.463 106.770,303.351 106.968 C 303.256 107.137,303.312 107.182,303.518 107.103 C 303.689 107.038,303.884 106.808,303.953 106.593 C 304.021 106.378,304.163 106.202,304.268 106.202 C 304.373 106.202,304.459 106.064,304.459 105.894 C 304.459 105.725,304.367 105.587,304.254 105.587 C 304.127 105.587,304.049 104.459,304.049 102.614 C 304.049 100.374,304.112 99.640,304.305 99.638 C 304.489 99.636,304.480 99.583,304.276 99.454 C 304.100 99.342,304.045 99.129,304.133 98.899 C 304.211 98.694,304.209 98.593,304.128 98.674 C 304.047 98.755,303.801 98.660,303.583 98.463 C 303.218 98.132,302.489 98.104,294.494 98.104 C 289.714 98.104,285.802 98.034,285.802 97.950 C 285.802 97.865,285.894 97.796,286.007 97.796 C 286.133 97.796,286.212 96.771,286.212 95.131 C 286.212 93.457,286.134 92.465,286.003 92.465 C 285.883 92.465,285.849 92.248,285.924 91.950 C 285.997 91.656,285.945 91.305,285.802 91.133 C 285.600 90.889,285.615 90.805,285.882 90.703 C 286.063 90.633,286.212 90.419,286.212 90.227 C 286.212 89.738,287.218 88.833,287.955 88.659 C 288.293 88.579,288.703 88.411,288.866 88.285 C 289.101 88.104,289.126 88.120,288.989 88.365 C 288.868 88.582,288.883 88.612,289.042 88.467 C 289.187 88.335,291.786 88.299,296.402 88.365 C 303.963 88.474,304.880 88.364,304.557 87.391 C 304.510 87.250,304.552 87.135,304.651 87.135 C 304.981 87.135,304.890 80.797,304.553 80.281 C 304.388 80.030,304.304 79.773,304.366 79.711 C 304.508 79.568,303.530 79.380,300.871 79.041 C 300.533 78.998,299.674 78.956,298.963 78.948 C 298.251 78.940,297.712 78.864,297.765 78.779 C 297.817 78.695,296.016 78.600,293.763 78.568 C 290.478 78.523,289.697 78.564,289.824 78.774 C 289.948 78.981,289.917 78.985,289.679 78.792 C 289.335 78.514,287.771 78.487,287.084 78.749 C 286.801 78.856,286.622 78.846,286.622 78.724 C 286.622 78.496,286.346 78.458,286.146 78.659 M234.955 79.105 C 234.842 79.143,234.810 79.273,234.884 79.393 C 234.965 79.523,234.923 79.552,234.782 79.465 C 234.166 79.085,234.034 79.841,234.034 83.752 C 234.034 88.961,233.338 88.450,240.543 88.533 L 246.233 88.599 246.257 107.088 C 246.270 117.257,246.264 125.664,246.244 125.770 C 246.184 126.076,246.687 126.906,246.865 126.796 C 246.952 126.742,247.084 126.794,247.156 126.911 C 247.242 127.050,248.962 127.118,252.078 127.107 L 256.868 127.089 257.287 126.380 C 257.700 125.680,257.706 125.421,257.712 107.186 C 257.715 97.020,257.742 88.678,257.771 88.649 C 257.801 88.620,260.420 88.577,263.593 88.554 L 269.361 88.512 269.586 88.019 C 269.948 87.223,269.873 80.162,269.496 79.664 C 269.331 79.445,269.194 79.352,269.192 79.459 C 269.190 79.565,269.115 79.535,269.024 79.392 C 268.873 79.154,235.646 78.875,234.955 79.105 M311.011 79.291 C 310.775 79.456,310.677 79.689,310.756 79.896 C 310.852 80.145,310.810 80.187,310.594 80.060 C 310.416 79.955,310.442 80.048,310.661 80.299 C 310.859 80.524,311.020 80.811,311.020 80.935 C 311.020 81.060,311.205 81.220,311.430 81.292 C 311.656 81.363,311.840 81.513,311.840 81.625 C 311.840 81.737,311.748 81.771,311.635 81.702 C 311.522 81.632,311.430 81.650,311.430 81.743 C 311.430 81.835,311.615 82.026,311.840 82.167 C 312.066 82.308,312.250 82.606,312.250 82.831 C 312.250 83.056,312.458 83.447,312.711 83.701 C 312.965 83.954,313.150 84.231,313.121 84.316 C 313.093 84.400,313.218 84.470,313.400 84.470 C 313.606 84.470,313.686 84.583,313.613 84.772 C 313.549 84.938,313.640 85.154,313.815 85.251 C 313.989 85.349,314.141 85.513,314.151 85.616 C 314.161 85.718,314.360 86.125,314.593 86.520 C 314.826 86.914,315.012 87.283,315.006 87.340 C 314.986 87.526,315.425 87.913,315.563 87.831 C 315.637 87.786,315.648 87.939,315.587 88.172 C 315.505 88.485,315.593 88.625,315.925 88.712 C 316.215 88.787,316.333 88.936,316.257 89.132 C 316.180 89.334,316.237 89.399,316.428 89.326 C 316.631 89.248,316.684 89.333,316.609 89.619 C 316.550 89.843,316.597 89.996,316.714 89.963 C 316.830 89.930,316.955 89.995,316.991 90.108 C 317.028 90.220,317.198 90.477,317.370 90.678 C 317.542 90.879,317.637 91.064,317.582 91.088 C 317.526 91.113,317.676 91.410,317.917 91.748 C 318.157 92.086,318.605 92.824,318.913 93.388 C 319.220 93.952,319.618 94.528,319.796 94.669 C 319.974 94.810,320.043 94.926,319.950 94.926 C 319.857 94.926,320.024 95.117,320.321 95.351 C 320.656 95.615,320.861 95.977,320.861 96.307 C 320.861 96.600,320.917 96.783,320.985 96.715 C 321.175 96.526,321.643 97.042,321.536 97.321 C 321.484 97.456,321.634 97.686,321.869 97.833 C 322.104 97.980,322.296 98.267,322.296 98.472 C 322.296 98.678,322.370 98.800,322.460 98.744 C 322.550 98.688,322.742 98.831,322.885 99.061 C 323.067 99.352,323.073 99.434,322.905 99.330 C 322.772 99.248,322.822 99.423,323.016 99.718 C 323.210 100.014,323.447 100.256,323.544 100.256 C 323.640 100.256,323.660 100.410,323.588 100.597 C 323.513 100.792,323.541 100.886,323.653 100.817 C 323.761 100.751,323.969 100.967,324.116 101.297 C 324.262 101.628,324.461 101.850,324.558 101.790 C 324.656 101.730,324.697 101.876,324.651 102.115 C 324.586 102.455,324.644 102.520,324.918 102.415 C 325.134 102.332,325.045 102.514,324.685 102.889 C 324.257 103.336,324.134 103.626,324.222 103.979 C 324.288 104.243,324.287 104.336,324.219 104.186 C 324.095 103.910,323.194 105.107,323.280 105.433 C 323.303 105.518,323.229 105.587,323.116 105.587 C 323.004 105.587,322.911 105.678,322.911 105.790 C 322.911 105.902,322.717 106.217,322.480 106.490 C 322.243 106.762,322.080 107.017,322.119 107.055 C 322.157 107.093,321.982 107.458,321.730 107.866 C 321.477 108.274,321.271 108.744,321.271 108.911 C 321.271 109.282,320.573 109.946,320.383 109.756 C 320.308 109.681,320.246 109.773,320.246 109.961 C 320.246 110.149,320.131 110.304,319.990 110.306 C 319.818 110.308,319.835 110.376,320.041 110.511 C 320.298 110.679,320.272 110.733,319.887 110.839 C 319.634 110.908,319.426 111.094,319.426 111.252 C 319.426 111.626,318.983 112.410,318.653 112.622 C 318.509 112.713,318.446 112.874,318.511 112.980 C 318.577 113.086,318.540 113.173,318.429 113.173 C 318.222 113.173,317.870 114.348,317.969 114.710 C 318.000 114.823,317.956 114.846,317.871 114.761 C 317.650 114.541,316.966 115.217,316.966 115.655 C 316.966 115.857,316.816 116.106,316.633 116.209 C 316.450 116.311,316.276 116.618,316.246 116.890 C 316.216 117.162,315.905 117.692,315.555 118.067 C 315.062 118.595,314.944 118.872,315.036 119.293 C 315.127 119.714,315.105 119.767,314.935 119.528 C 314.787 119.320,314.716 119.303,314.714 119.477 C 314.712 119.618,314.562 119.733,314.381 119.733 C 314.172 119.733,314.095 119.846,314.169 120.041 C 314.234 120.210,314.175 120.350,314.038 120.352 C 313.866 120.354,313.877 120.411,314.072 120.535 C 314.299 120.678,314.268 120.762,313.918 120.949 C 313.677 121.078,313.480 121.324,313.480 121.495 C 313.480 121.667,313.389 121.752,313.278 121.683 C 313.157 121.608,313.130 121.700,313.210 121.909 C 313.296 122.134,313.265 122.212,313.124 122.125 C 312.981 122.036,312.944 122.144,313.019 122.431 C 313.102 122.746,313.063 122.828,312.884 122.718 C 312.724 122.619,312.592 122.718,312.520 122.993 C 312.458 123.230,312.320 123.424,312.214 123.424 C 312.108 123.424,312.078 123.516,312.148 123.629 C 312.217 123.742,312.177 123.834,312.057 123.834 C 311.938 123.834,311.840 123.989,311.840 124.180 C 311.840 124.370,311.637 124.741,311.390 125.005 C 310.952 125.471,310.786 126.743,311.119 127.077 C 311.626 127.585,323.121 127.210,322.804 126.696 C 322.737 126.588,322.760 126.499,322.856 126.499 C 322.951 126.499,323.043 126.317,323.060 126.095 C 323.076 125.872,323.288 125.480,323.529 125.223 C 323.770 124.967,324.145 124.370,324.362 123.898 C 324.578 123.425,324.848 122.982,324.961 122.912 C 325.074 122.842,325.167 122.608,325.167 122.393 C 325.167 122.106,325.262 122.037,325.525 122.136 C 325.851 122.258,325.856 122.235,325.577 121.885 C 325.407 121.673,325.374 121.563,325.502 121.640 C 325.630 121.716,325.849 121.642,325.989 121.474 C 326.128 121.306,326.182 121.169,326.110 121.169 C 326.037 121.169,326.128 120.938,326.313 120.656 C 326.580 120.248,326.592 120.141,326.369 120.131 C 326.215 120.123,326.297 120.034,326.550 119.932 C 326.804 119.830,327.012 119.605,327.012 119.433 C 327.012 119.260,327.104 119.118,327.217 119.118 C 327.330 119.118,327.422 118.836,327.422 118.491 C 327.422 118.065,327.499 117.911,327.662 118.012 C 327.821 118.111,327.859 118.050,327.775 117.830 C 327.689 117.606,327.737 117.533,327.924 117.605 C 328.076 117.663,328.270 117.598,328.355 117.461 C 328.454 117.300,328.425 117.263,328.274 117.356 C 327.959 117.551,327.984 117.258,328.320 116.815 C 328.468 116.619,328.650 116.520,328.724 116.593 C 328.842 116.712,328.945 116.189,328.881 115.787 C 328.868 115.702,328.985 115.633,329.142 115.633 C 329.299 115.633,329.488 115.391,329.562 115.096 C 329.637 114.800,329.832 114.424,329.997 114.259 C 330.161 114.094,330.250 113.885,330.194 113.795 C 330.138 113.704,330.297 113.576,330.547 113.510 C 330.908 113.416,330.950 113.339,330.750 113.138 C 330.611 112.999,330.499 112.789,330.500 112.670 C 330.502 112.552,330.593 112.594,330.702 112.763 C 330.812 112.932,330.902 112.965,330.904 112.836 C 330.906 112.707,331.050 112.547,331.225 112.479 C 331.408 112.409,331.490 112.444,331.418 112.560 C 331.349 112.671,331.396 112.763,331.522 112.763 C 331.648 112.763,331.697 112.852,331.629 112.960 C 331.562 113.069,331.695 113.346,331.925 113.575 C 332.155 113.805,332.342 114.085,332.342 114.198 C 332.342 114.311,332.450 114.403,332.582 114.403 C 332.713 114.403,332.762 114.461,332.691 114.533 C 332.619 114.604,332.741 114.892,332.961 115.172 C 333.182 115.452,333.302 115.778,333.229 115.897 C 333.148 116.028,333.220 116.065,333.413 115.991 C 333.652 115.899,333.705 115.970,333.625 116.276 C 333.548 116.567,333.640 116.714,333.949 116.795 C 334.235 116.870,334.365 117.051,334.335 117.334 C 334.307 117.599,334.464 117.850,334.750 117.996 C 335.003 118.126,335.152 118.291,335.080 118.363 C 335.008 118.435,335.063 118.630,335.201 118.797 C 335.340 118.964,335.397 119.190,335.330 119.300 C 335.262 119.410,335.314 119.567,335.446 119.648 C 335.605 119.746,335.631 119.707,335.523 119.534 C 335.415 119.357,335.455 119.303,335.645 119.369 C 335.802 119.424,335.905 119.613,335.874 119.790 C 335.842 119.969,336.007 120.173,336.243 120.248 C 336.584 120.356,336.621 120.441,336.429 120.673 C 336.256 120.882,336.253 120.964,336.418 120.964 C 336.544 120.964,336.648 121.105,336.648 121.278 C 336.648 121.450,336.786 121.645,336.955 121.710 C 337.125 121.774,337.263 121.998,337.263 122.205 C 337.263 122.413,337.388 122.657,337.541 122.747 C 337.857 122.934,338.374 123.834,338.165 123.834 C 338.090 123.834,338.272 124.026,338.570 124.260 C 338.868 124.495,339.060 124.772,338.995 124.875 C 338.931 124.979,338.967 125.064,339.074 125.064 C 339.181 125.064,339.327 125.295,339.397 125.577 C 339.468 125.859,339.617 126.089,339.727 126.089 C 339.838 126.089,339.928 126.205,339.928 126.347 C 339.928 127.050,351.916 127.583,352.338 126.899 C 352.407 126.788,352.526 126.736,352.603 126.784 C 352.679 126.831,352.764 126.505,352.790 126.059 C 352.817 125.614,352.757 125.299,352.658 125.360 C 352.499 125.458,352.152 124.893,352.235 124.672 C 352.252 124.626,352.127 124.510,351.956 124.415 C 351.786 124.320,351.586 123.965,351.512 123.628 C 351.438 123.290,351.287 123.014,351.176 123.014 C 351.066 123.014,351.017 122.945,351.068 122.860 C 351.178 122.678,350.679 122.173,350.533 122.318 C 350.423 122.429,350.090 121.370,350.151 121.102 C 350.172 121.009,350.095 120.992,349.979 121.063 C 349.864 121.134,349.769 121.049,349.769 120.873 C 349.769 120.697,349.662 120.554,349.530 120.554 C 349.399 120.554,349.348 120.496,349.418 120.427 C 349.577 120.268,349.059 119.733,348.747 119.733 C 348.619 119.733,348.575 119.637,348.647 119.519 C 348.720 119.402,348.624 119.067,348.433 118.777 C 348.238 118.479,348.200 118.318,348.345 118.407 C 348.512 118.511,348.551 118.484,348.456 118.330 C 348.376 118.200,348.184 118.093,348.031 118.093 C 347.877 118.093,347.691 117.817,347.617 117.478 C 347.542 117.140,347.397 116.863,347.293 116.863 C 347.189 116.863,347.104 116.719,347.104 116.544 C 347.104 116.368,347.012 116.281,346.899 116.351 C 346.718 116.463,346.609 116.185,346.745 115.957 C 346.773 115.910,346.588 115.649,346.333 115.378 C 346.079 115.107,345.933 114.823,346.009 114.746 C 346.085 114.670,346.034 114.608,345.896 114.608 C 345.758 114.608,345.691 114.533,345.747 114.442 C 345.804 114.350,345.573 113.958,345.235 113.570 C 344.897 113.183,344.483 112.608,344.316 112.295 C 344.138 111.962,343.915 111.784,343.780 111.867 C 343.630 111.960,343.594 111.894,343.676 111.679 C 343.750 111.487,343.628 111.149,343.388 110.876 C 343.159 110.617,343.040 110.535,343.122 110.693 C 343.224 110.889,343.192 110.931,343.021 110.826 C 342.883 110.741,342.819 110.545,342.878 110.390 C 342.938 110.236,342.864 109.987,342.714 109.837 C 342.409 109.532,342.075 108.658,342.154 108.371 C 342.183 108.268,342.045 108.314,341.848 108.474 C 341.651 108.634,341.555 108.656,341.635 108.523 C 341.715 108.389,341.680 108.219,341.558 108.143 C 341.436 108.068,341.386 107.873,341.448 107.711 C 341.511 107.549,341.425 107.364,341.259 107.300 C 341.092 107.236,341.003 107.108,341.060 107.015 C 341.118 106.921,340.992 106.723,340.780 106.575 C 340.568 106.426,340.196 105.869,339.954 105.337 C 339.712 104.804,339.327 104.269,339.100 104.147 C 338.873 104.026,338.731 103.855,338.784 103.768 C 338.838 103.681,338.699 103.309,338.475 102.942 C 338.252 102.574,338.154 102.326,338.259 102.391 C 338.488 102.533,339.124 101.609,339.164 101.077 C 339.180 100.867,339.264 100.738,339.350 100.791 C 339.436 100.845,339.568 100.640,339.644 100.338 C 339.720 100.035,339.957 99.612,340.170 99.399 C 340.384 99.186,340.495 98.908,340.417 98.782 C 340.330 98.643,340.368 98.610,340.512 98.699 C 340.662 98.792,340.748 98.687,340.748 98.411 C 340.748 98.172,340.836 98.031,340.943 98.097 C 341.050 98.163,341.249 98.007,341.384 97.750 C 341.519 97.494,341.687 97.237,341.758 97.181 C 342.148 96.868,342.583 95.951,342.342 95.949 C 342.198 95.949,342.335 95.780,342.646 95.575 C 342.957 95.370,343.149 95.139,343.071 95.062 C 342.994 94.985,343.109 94.791,343.326 94.633 C 343.543 94.474,343.733 94.244,343.747 94.122 C 343.761 94.000,343.784 93.762,343.798 93.593 C 343.812 93.424,343.939 93.285,344.080 93.285 C 344.221 93.285,344.601 92.778,344.924 92.160 C 345.253 91.531,345.605 91.093,345.724 91.167 C 345.846 91.242,345.876 91.199,345.794 91.066 C 345.715 90.939,345.850 90.564,346.094 90.234 C 346.338 89.904,346.473 89.531,346.395 89.404 C 346.317 89.278,346.363 89.200,346.498 89.231 C 346.632 89.262,346.976 88.872,347.261 88.365 C 347.547 87.858,347.871 87.383,347.981 87.311 C 348.091 87.240,348.109 87.055,348.020 86.901 C 347.931 86.748,347.930 86.687,348.018 86.766 C 348.218 86.946,348.744 86.440,348.744 86.067 C 348.744 85.915,348.948 85.617,349.196 85.404 C 349.636 85.027,349.637 85.013,349.247 84.860 C 348.876 84.715,348.875 84.702,349.225 84.689 C 349.433 84.681,349.651 84.491,349.709 84.267 C 349.768 84.043,349.888 83.903,349.975 83.957 C 350.213 84.104,350.834 83.060,350.669 82.792 C 350.587 82.659,350.618 82.617,350.741 82.694 C 350.946 82.820,351.306 82.285,351.237 81.958 C 351.219 81.873,351.320 81.803,351.461 81.801 C 351.632 81.799,351.615 81.732,351.410 81.599 C 351.147 81.429,351.154 81.400,351.461 81.397 C 351.658 81.396,351.820 81.296,351.820 81.177 C 351.820 81.058,351.901 81.010,352.001 81.072 C 352.101 81.134,352.233 80.995,352.293 80.763 C 352.427 80.250,351.928 78.942,351.760 79.366 C 351.698 79.523,351.640 79.559,351.631 79.446 C 351.606 79.135,340.999 79.250,340.405 79.568 C 340.151 79.704,339.986 79.886,340.039 79.973 C 340.092 80.059,339.911 80.397,339.635 80.724 C 339.360 81.051,339.073 81.567,338.997 81.869 C 338.921 82.172,338.736 82.419,338.585 82.419 C 338.435 82.419,338.246 82.526,338.166 82.656 C 338.075 82.803,338.110 82.837,338.256 82.746 C 338.607 82.530,338.544 82.942,338.181 83.243 C 338.009 83.386,337.915 83.550,337.972 83.607 C 338.030 83.664,337.917 83.828,337.721 83.971 C 337.525 84.114,337.358 84.308,337.348 84.402 C 337.297 84.907,336.819 85.703,336.447 85.902 C 336.213 86.028,336.072 86.212,336.133 86.311 C 336.194 86.410,336.149 86.550,336.033 86.622 C 335.916 86.694,335.870 86.833,335.930 86.930 C 335.990 87.027,335.931 87.173,335.799 87.255 C 335.650 87.347,335.614 87.314,335.706 87.166 C 335.786 87.036,335.747 86.930,335.618 86.930 C 335.489 86.930,335.425 87.045,335.475 87.186 C 335.525 87.327,335.437 87.699,335.279 88.012 C 335.120 88.326,335.040 88.661,335.100 88.758 C 335.159 88.855,335.048 88.921,334.852 88.906 C 334.629 88.888,334.506 89.012,334.524 89.236 C 334.539 89.434,334.465 89.595,334.358 89.595 C 334.251 89.595,334.220 89.687,334.290 89.800 C 334.360 89.913,334.296 90.007,334.148 90.010 C 333.845 90.016,333.100 91.379,333.260 91.637 C 333.316 91.728,333.181 91.851,332.958 91.910 C 332.735 91.968,332.452 92.278,332.330 92.599 C 332.126 93.132,332.084 93.152,331.845 92.827 C 331.702 92.632,331.524 92.532,331.451 92.605 C 331.377 92.679,331.317 92.539,331.317 92.295 C 331.317 92.050,331.225 91.850,331.112 91.850 C 330.999 91.850,330.918 91.781,330.932 91.697 C 331.005 91.233,330.881 90.817,330.702 90.928 C 330.589 90.997,330.497 90.953,330.497 90.828 C 330.497 90.703,330.267 90.371,329.985 90.089 C 329.451 89.555,329.308 89.265,329.698 89.506 C 329.823 89.583,329.756 89.380,329.550 89.057 C 329.343 88.733,329.055 88.393,328.909 88.301 C 328.763 88.210,328.697 88.047,328.763 87.941 C 328.829 87.834,328.739 87.692,328.562 87.624 C 328.386 87.556,328.242 87.406,328.242 87.289 C 328.242 87.173,328.080 86.945,327.883 86.783 C 327.686 86.622,327.631 86.542,327.762 86.607 C 327.918 86.685,327.961 86.580,327.887 86.298 C 327.802 85.973,327.733 85.936,327.602 86.144 C 327.468 86.355,327.427 86.338,327.425 86.069 C 327.423 85.877,327.260 85.626,327.063 85.511 C 326.810 85.364,326.789 85.300,326.992 85.296 C 327.183 85.292,327.126 85.156,326.822 84.893 C 326.570 84.674,326.346 84.372,326.324 84.220 C 326.302 84.068,326.078 83.656,325.827 83.304 C 325.577 82.952,325.372 82.577,325.372 82.470 C 325.372 82.186,324.635 81.385,324.479 81.500 C 324.406 81.555,324.389 81.541,324.441 81.471 C 324.703 81.114,323.244 79.241,322.880 79.466 C 322.785 79.525,322.706 79.486,322.706 79.380 C 322.706 79.274,322.522 79.138,322.296 79.079 C 322.071 79.021,321.886 79.056,321.886 79.158 C 321.886 79.264,319.812 79.344,317.068 79.344 C 314.418 79.344,312.250 79.271,312.250 79.183 C 312.250 78.925,311.432 78.997,311.011 79.291 M186.545 79.293 C 186.531 79.321,186.508 79.433,186.494 79.542 C 186.480 79.651,186.300 79.938,186.094 80.178 C 185.729 80.605,185.731 80.629,186.181 81.108 C 186.435 81.378,186.534 81.599,186.402 81.599 C 186.269 81.599,186.161 81.697,186.161 81.816 C 186.161 81.936,186.253 81.976,186.366 81.907 C 186.490 81.830,186.571 82.106,186.571 82.600 C 186.571 83.051,186.665 83.478,186.779 83.549 C 186.894 83.620,186.939 83.757,186.879 83.853 C 186.744 84.072,187.199 85.135,187.513 85.336 C 187.641 85.417,187.720 85.717,187.689 86.002 C 187.657 86.290,187.738 86.521,187.870 86.523 C 188.005 86.525,187.975 86.612,187.801 86.725 C 187.632 86.834,187.596 86.925,187.722 86.927 C 187.847 86.928,187.937 87.137,187.922 87.391 C 187.907 87.645,188.007 88.076,188.145 88.350 C 188.282 88.624,188.340 88.938,188.272 89.048 C 188.203 89.158,188.243 89.190,188.359 89.118 C 188.543 89.004,188.945 90.424,188.856 90.876 C 188.840 90.961,188.942 91.030,189.083 91.030 C 189.243 91.030,189.336 91.317,189.332 91.799 C 189.329 92.222,189.451 92.697,189.604 92.854 C 189.774 93.029,189.803 93.188,189.680 93.265 C 189.557 93.340,189.632 93.704,189.870 94.194 C 190.085 94.637,190.261 95.110,190.261 95.246 C 190.261 95.383,190.397 95.755,190.562 96.073 C 190.794 96.521,190.806 96.689,190.613 96.811 C 190.394 96.950,190.537 97.051,190.896 97.011 C 190.962 97.003,190.996 97.319,190.969 97.712 C 190.941 98.129,191.049 98.554,191.227 98.732 C 191.470 98.976,191.481 99.099,191.282 99.339 C 191.107 99.550,191.100 99.641,191.261 99.641 C 191.388 99.641,191.492 99.780,191.492 99.949 C 191.492 100.118,191.584 100.256,191.697 100.256 C 191.809 100.256,191.902 100.354,191.902 100.473 C 191.902 100.593,191.791 100.622,191.656 100.539 C 191.521 100.455,191.614 100.672,191.861 101.020 C 192.368 101.732,192.434 101.990,192.055 101.776 C 191.850 101.660,191.850 101.687,192.055 101.907 C 192.196 102.059,192.312 102.355,192.312 102.565 C 192.312 102.774,192.397 102.893,192.502 102.828 C 192.610 102.761,192.653 103.019,192.602 103.431 C 192.553 103.828,192.596 104.152,192.697 104.152 C 192.858 104.152,193.051 104.904,193.180 106.033 C 193.202 106.222,193.292 106.332,193.381 106.277 C 193.532 106.184,193.631 106.808,193.557 107.381 C 193.539 107.522,193.631 107.637,193.761 107.637 C 193.906 107.637,193.965 107.868,193.911 108.231 C 193.850 108.650,193.900 108.795,194.083 108.725 C 194.259 108.658,194.328 108.812,194.300 109.208 C 194.275 109.571,194.353 109.772,194.508 109.741 C 194.652 109.713,194.708 109.821,194.640 109.997 C 194.576 110.165,194.595 110.464,194.683 110.661 C 194.770 110.859,194.869 111.205,194.902 111.430 C 195.058 112.501,195.240 113.161,195.359 113.088 C 195.431 113.044,195.514 113.337,195.543 113.739 C 195.573 114.140,195.686 114.577,195.795 114.708 C 195.903 114.839,195.955 115.141,195.909 115.380 C 195.848 115.693,195.908 115.783,196.121 115.701 C 196.321 115.624,196.379 115.686,196.299 115.894 C 196.234 116.062,196.321 116.534,196.491 116.942 C 196.662 117.350,196.714 117.683,196.607 117.683 C 196.500 117.683,196.412 117.791,196.412 117.922 C 196.412 118.054,196.468 118.106,196.536 118.037 C 196.770 117.804,197.160 118.378,197.074 118.827 C 197.027 119.074,197.085 119.335,197.204 119.408 C 197.322 119.482,197.367 119.677,197.304 119.843 C 197.240 120.008,197.275 120.144,197.381 120.144 C 197.487 120.144,197.584 120.259,197.597 120.400 C 197.683 121.348,197.831 121.881,198.029 121.947 C 198.155 121.989,198.257 122.116,198.257 122.230 C 198.257 122.344,198.441 122.670,198.665 122.954 C 198.889 123.239,199.019 123.558,198.954 123.663 C 198.808 123.899,200.102 125.264,200.473 125.267 C 200.621 125.268,200.691 125.352,200.628 125.453 C 200.526 125.618,200.978 125.924,201.391 125.969 C 201.480 125.979,201.618 126.081,201.699 126.196 C 202.074 126.732,204.557 127.543,205.997 127.600 C 206.363 127.615,206.663 127.707,206.663 127.806 C 206.663 127.904,206.794 127.876,206.955 127.743 C 207.214 127.528,209.463 127.613,209.714 127.847 C 209.757 127.887,209.988 127.812,210.227 127.681 C 210.712 127.414,210.900 127.354,211.788 127.185 C 212.127 127.121,212.404 127.007,212.404 126.933 C 212.404 126.858,212.750 126.616,213.173 126.394 C 213.596 126.172,214.009 125.897,214.092 125.784 C 214.175 125.670,214.244 125.649,214.246 125.738 C 214.248 125.826,214.549 125.549,214.915 125.122 C 215.281 124.696,215.673 124.279,215.786 124.196 C 215.902 124.111,215.908 124.044,215.799 124.042 C 215.694 124.040,215.809 123.851,216.056 123.621 C 216.302 123.391,216.504 123.078,216.504 122.925 C 216.504 122.773,216.643 122.595,216.812 122.530 C 216.981 122.465,217.119 122.270,217.119 122.098 C 217.119 121.925,217.218 121.784,217.338 121.784 C 217.461 121.784,217.502 121.610,217.432 121.391 C 217.364 121.175,217.404 120.939,217.521 120.866 C 217.638 120.794,217.734 120.555,217.734 120.336 C 217.734 120.118,217.837 119.938,217.962 119.938 C 218.104 119.938,218.139 119.739,218.054 119.402 C 217.964 119.042,218.028 118.745,218.250 118.500 C 218.473 118.254,218.509 118.089,218.360 117.997 C 218.238 117.922,218.192 117.773,218.258 117.666 C 218.324 117.559,218.464 117.525,218.569 117.589 C 218.674 117.654,218.760 117.425,218.760 117.080 C 218.760 116.735,218.852 116.453,218.965 116.453 C 219.077 116.453,219.170 116.355,219.170 116.236 C 219.170 116.117,219.068 116.082,218.944 116.158 C 218.792 116.252,218.797 116.151,218.960 115.847 C 219.093 115.599,219.147 115.254,219.081 115.082 C 219.001 114.875,219.054 114.803,219.234 114.872 C 219.416 114.942,219.495 114.830,219.469 114.536 C 219.448 114.294,219.521 113.981,219.631 113.842 C 219.741 113.702,219.776 113.445,219.709 113.270 C 219.642 113.095,219.708 112.906,219.857 112.849 C 220.005 112.792,220.126 112.632,220.126 112.494 C 220.126 112.356,220.190 111.991,220.267 111.683 C 220.364 111.298,220.328 111.123,220.153 111.123 C 220.013 111.123,220.104 110.979,220.354 110.803 C 220.606 110.627,220.810 110.268,220.810 110.000 C 220.810 109.734,220.925 109.470,221.066 109.413 C 221.255 109.337,221.249 109.305,221.041 109.293 C 220.822 109.281,220.813 109.213,221.000 108.988 C 221.173 108.779,221.177 108.660,221.014 108.559 C 220.856 108.462,220.884 108.272,221.106 107.933 C 221.282 107.665,221.465 107.235,221.512 106.978 C 221.560 106.720,221.617 106.463,221.639 106.407 C 221.661 106.351,221.668 106.235,221.654 106.151 C 221.641 106.066,221.732 105.997,221.857 105.997 C 221.982 105.997,222.031 105.859,221.966 105.689 C 221.901 105.520,221.918 105.382,222.003 105.382 C 222.088 105.382,222.179 105.101,222.205 104.758 C 222.231 104.416,222.400 103.747,222.580 103.272 C 222.760 102.797,222.953 102.064,223.008 101.641 C 223.065 101.204,223.196 100.928,223.312 101.000 C 223.424 101.069,223.405 100.919,223.270 100.666 C 223.107 100.362,223.100 100.254,223.250 100.346 C 223.378 100.426,223.475 100.343,223.475 100.154 C 223.475 99.971,223.558 99.873,223.659 99.936 C 223.760 99.998,223.828 99.727,223.809 99.333 C 223.791 98.939,223.831 98.616,223.899 98.616 C 223.966 98.616,224.022 98.478,224.022 98.309 C 224.022 98.139,223.941 98.001,223.843 98.001 C 223.745 98.001,223.783 97.872,223.928 97.715 C 224.074 97.558,224.239 97.457,224.295 97.490 C 224.352 97.524,224.416 97.230,224.438 96.837 C 224.460 96.444,224.575 96.006,224.693 95.864 C 224.810 95.722,224.846 95.545,224.772 95.471 C 224.698 95.396,224.745 95.336,224.876 95.336 C 225.013 95.336,225.115 95.028,225.115 94.618 C 225.115 94.223,225.208 93.901,225.320 93.901 C 225.433 93.901,225.525 93.757,225.525 93.581 C 225.525 93.401,225.427 93.322,225.300 93.401 C 225.144 93.497,225.147 93.405,225.310 93.099 C 225.440 92.857,225.643 92.719,225.763 92.793 C 225.907 92.882,225.934 92.720,225.843 92.306 C 225.763 91.941,225.796 91.629,225.923 91.550 C 226.043 91.476,226.140 91.093,226.140 90.699 C 226.140 90.304,226.217 90.028,226.311 90.087 C 226.405 90.145,226.495 90.081,226.512 89.945 C 226.742 88.015,226.835 87.545,226.987 87.545 C 227.085 87.545,227.146 87.476,227.122 87.391 C 227.098 87.307,227.194 87.030,227.334 86.776 C 227.515 86.450,227.529 86.200,227.382 85.925 C 227.224 85.630,227.247 85.507,227.477 85.419 C 227.644 85.355,227.781 85.115,227.781 84.886 C 227.781 84.657,227.856 84.470,227.949 84.470 C 228.042 84.470,228.101 84.149,228.082 83.756 C 228.058 83.288,228.176 82.925,228.426 82.699 C 228.668 82.480,228.806 82.075,228.806 81.580 C 228.806 81.153,228.898 80.746,229.011 80.677 C 229.378 80.450,229.227 80.030,228.692 79.786 C 228.403 79.655,228.224 79.456,228.293 79.344 C 228.431 79.121,218.743 79.096,218.402 79.319 C 217.923 79.632,216.941 81.714,217.376 81.494 C 217.517 81.422,217.471 81.496,217.273 81.658 C 217.076 81.820,216.914 82.155,216.914 82.404 C 216.914 82.653,216.813 83.046,216.689 83.278 C 216.525 83.584,216.525 83.661,216.689 83.560 C 217.028 83.350,216.960 83.633,216.579 84.014 C 216.370 84.224,216.328 84.377,216.470 84.424 C 216.622 84.475,216.631 84.626,216.497 84.894 C 216.388 85.112,216.207 85.473,216.094 85.697 C 215.982 85.921,215.889 86.336,215.889 86.619 C 215.889 86.903,215.807 87.135,215.708 87.135 C 215.504 87.135,215.267 88.121,215.227 89.134 C 215.213 89.500,215.135 89.800,215.055 89.800 C 214.975 89.800,214.837 90.146,214.749 90.569 C 214.567 91.442,214.526 91.604,214.454 91.748 C 214.355 91.945,214.300 92.265,214.275 92.785 C 214.261 93.074,214.160 93.254,214.050 93.187 C 213.937 93.117,213.846 93.357,213.839 93.738 C 213.817 94.903,213.756 95.308,213.613 95.220 C 213.538 95.174,213.428 95.319,213.369 95.543 C 213.305 95.788,213.345 95.900,213.469 95.823 C 213.583 95.753,213.544 95.914,213.382 96.182 C 213.061 96.712,213.042 96.944,213.289 97.332 C 213.400 97.507,213.351 97.548,213.132 97.464 C 212.908 97.378,212.814 97.467,212.814 97.762 C 212.814 97.993,212.726 98.236,212.618 98.303 C 212.510 98.370,212.471 98.552,212.531 98.709 C 212.591 98.866,212.541 99.181,212.418 99.409 C 212.296 99.638,212.177 100.060,212.153 100.348 C 212.129 100.636,212.031 100.871,211.935 100.871 C 211.840 100.871,211.817 101.048,211.886 101.264 C 211.954 101.480,211.915 101.716,211.797 101.789 C 211.680 101.861,211.584 102.192,211.584 102.524 C 211.584 102.855,211.492 103.127,211.379 103.127 C 211.266 103.127,211.174 103.224,211.174 103.344 C 211.174 103.463,211.280 103.495,211.410 103.415 C 211.573 103.314,211.590 103.359,211.466 103.556 C 211.147 104.065,210.631 105.747,210.663 106.178 C 210.680 106.407,210.565 106.644,210.408 106.705 C 210.251 106.765,210.183 106.911,210.256 107.030 C 210.329 107.148,210.247 107.462,210.073 107.727 C 209.895 107.999,209.801 108.448,209.858 108.759 C 209.914 109.070,209.875 109.259,209.767 109.193 C 209.663 109.128,209.572 109.282,209.566 109.535 C 209.539 110.695,209.359 111.592,209.123 111.738 C 208.982 111.825,208.925 111.992,208.997 112.108 C 209.068 112.224,209.011 112.442,208.869 112.592 C 208.727 112.742,208.585 113.142,208.553 113.480 C 208.481 114.240,208.092 115.275,207.803 115.476 C 207.389 115.764,206.841 115.644,206.879 115.274 C 206.899 115.077,206.893 114.846,206.866 114.762 C 206.839 114.677,206.801 114.493,206.782 114.352 C 206.763 114.211,206.629 114.121,206.485 114.152 C 206.341 114.183,206.282 114.112,206.355 113.995 C 206.427 113.877,206.572 113.834,206.677 113.899 C 206.782 113.964,206.868 113.929,206.868 113.822 C 206.868 113.714,206.729 113.573,206.559 113.508 C 206.389 113.443,206.261 113.317,206.276 113.230 C 206.343 112.820,206.238 112.338,206.099 112.423 C 206.015 112.476,205.946 112.297,205.946 112.026 C 205.946 111.754,206.020 111.533,206.112 111.533 C 206.203 111.533,206.219 111.439,206.149 111.324 C 206.078 111.210,205.954 111.156,205.874 111.206 C 205.794 111.255,205.740 111.049,205.754 110.748 C 205.769 110.446,205.639 109.982,205.465 109.715 C 205.289 109.444,205.171 108.880,205.198 108.434 C 205.224 107.989,205.151 107.637,205.031 107.637 C 204.914 107.637,204.818 107.505,204.818 107.343 C 204.818 107.181,204.712 106.789,204.583 106.472 C 204.453 106.154,204.348 105.643,204.350 105.336 C 204.351 105.028,204.264 104.832,204.155 104.899 C 204.036 104.972,203.998 104.726,204.058 104.281 C 204.112 103.874,204.075 103.591,203.975 103.653 C 203.875 103.715,203.785 103.691,203.776 103.600 C 203.747 103.312,203.624 102.425,203.553 101.999 C 203.516 101.773,203.407 101.532,203.312 101.462 C 203.216 101.392,203.124 101.092,203.107 100.796 C 203.088 100.475,202.951 100.251,202.768 100.242 C 202.560 100.232,202.589 100.177,202.855 100.073 C 203.206 99.935,203.212 99.903,202.910 99.787 C 202.720 99.714,202.620 99.527,202.683 99.362 C 202.745 99.200,202.697 99.007,202.576 98.932 C 202.455 98.857,202.413 98.571,202.482 98.296 C 202.561 97.980,202.519 97.796,202.368 97.796 C 202.236 97.796,202.179 97.714,202.241 97.614 C 202.303 97.514,202.212 97.315,202.038 97.171 C 201.785 96.961,201.775 96.873,201.989 96.722 C 202.199 96.574,202.201 96.513,201.999 96.431 C 201.858 96.373,201.742 96.081,201.741 95.780 C 201.741 95.479,201.604 94.972,201.438 94.653 C 201.271 94.334,201.110 93.720,201.080 93.289 C 201.050 92.858,200.967 92.541,200.897 92.584 C 200.826 92.627,200.697 92.273,200.609 91.795 C 200.522 91.318,200.433 90.882,200.412 90.825 C 200.392 90.769,200.323 90.584,200.261 90.415 C 200.198 90.246,200.038 89.579,199.906 88.932 C 199.773 88.286,199.584 87.707,199.486 87.647 C 199.388 87.586,199.343 87.354,199.386 87.130 C 199.429 86.907,199.400 86.725,199.322 86.725 C 199.244 86.725,199.166 86.482,199.149 86.185 C 199.131 85.889,198.993 85.567,198.841 85.471 C 198.617 85.329,198.623 85.295,198.872 85.290 C 199.053 85.286,199.096 85.221,198.975 85.133 C 198.862 85.050,198.737 84.751,198.697 84.470 C 198.658 84.188,198.519 83.889,198.390 83.806 C 198.221 83.698,198.228 83.655,198.416 83.653 C 198.614 83.650,198.598 83.496,198.350 83.016 C 198.170 82.667,198.073 82.252,198.134 82.093 C 198.195 81.934,198.158 81.804,198.052 81.804 C 197.947 81.804,197.919 81.651,197.991 81.463 C 198.073 81.249,198.041 81.172,197.904 81.257 C 197.783 81.331,197.630 81.249,197.564 81.075 C 197.494 80.893,197.529 80.811,197.645 80.883 C 197.756 80.952,197.847 80.921,197.847 80.815 C 197.847 80.544,197.237 79.399,197.227 79.651 C 197.223 79.764,197.107 79.718,196.969 79.549 C 196.753 79.283,186.674 79.035,186.545 79.293 M121.568 80.420 C 121.789 80.625,121.815 80.625,121.699 80.420 C 121.620 80.279,121.652 80.164,121.772 80.164 C 121.891 80.164,121.989 80.259,121.989 80.374 C 121.989 80.490,122.219 80.672,122.501 80.779 C 122.783 80.886,123.014 81.075,123.014 81.198 C 123.014 81.332,123.186 81.367,123.441 81.286 C 123.812 81.169,123.841 81.203,123.661 81.539 C 123.498 81.844,123.537 81.981,123.839 82.170 C 124.164 82.373,124.216 82.617,124.162 83.697 C 124.098 84.983,123.707 86.182,123.412 86.000 C 123.326 85.946,123.278 86.061,123.307 86.255 C 123.335 86.449,123.189 86.790,122.981 87.012 C 122.774 87.235,122.604 87.544,122.604 87.698 C 122.604 87.853,122.515 87.924,122.407 87.858 C 122.290 87.785,122.248 88.029,122.304 88.461 C 122.358 88.890,122.308 89.185,122.180 89.185 C 122.062 89.185,122.022 89.093,122.091 88.980 C 122.161 88.867,122.135 88.775,122.034 88.775 C 121.853 88.775,121.354 89.659,121.256 90.151 C 121.229 90.288,121.017 90.668,120.784 90.995 C 120.551 91.322,120.419 91.648,120.491 91.720 C 120.563 91.792,120.499 91.850,120.349 91.850 C 120.198 91.850,120.131 91.906,120.200 91.975 C 120.268 92.043,120.154 92.282,119.945 92.505 C 119.498 92.986,119.274 93.696,119.570 93.696 C 119.685 93.696,119.561 93.887,119.295 94.121 C 119.029 94.355,118.949 94.476,119.118 94.389 C 119.382 94.254,119.386 94.281,119.146 94.577 C 118.993 94.766,118.786 94.871,118.687 94.810 C 118.589 94.749,118.560 94.835,118.624 95.002 C 118.688 95.168,118.541 95.503,118.298 95.746 C 118.055 95.989,117.900 96.301,117.953 96.439 C 118.006 96.577,117.829 96.902,117.559 97.161 C 117.290 97.420,117.112 97.701,117.164 97.786 C 117.216 97.870,117.078 98.134,116.856 98.371 C 116.634 98.609,116.453 98.992,116.453 99.223 C 116.453 99.453,116.363 99.641,116.252 99.641 C 116.141 99.641,115.993 99.871,115.923 100.152 C 115.852 100.433,115.719 100.617,115.628 100.561 C 115.536 100.504,115.398 100.758,115.320 101.126 C 115.242 101.493,114.988 102.002,114.755 102.255 C 114.522 102.509,114.405 102.717,114.495 102.717 C 114.585 102.717,114.544 102.854,114.405 103.021 C 114.266 103.189,114.209 103.475,114.278 103.656 C 114.362 103.874,114.272 104.019,114.011 104.088 C 113.795 104.144,113.556 104.435,113.481 104.735 C 113.406 105.034,113.158 105.453,112.931 105.665 C 112.628 105.947,112.584 106.092,112.767 106.204 C 112.949 106.317,112.899 106.476,112.582 106.793 C 112.343 107.032,112.156 107.296,112.166 107.381 C 112.193 107.603,111.458 108.661,111.276 108.662 C 111.192 108.662,111.123 108.841,111.123 109.060 C 111.123 109.279,111.036 109.512,110.930 109.577 C 110.672 109.737,110.097 110.908,110.097 111.275 C 110.097 111.438,109.913 111.805,109.687 112.092 C 109.462 112.378,109.276 112.762,109.274 112.944 C 109.272 113.207,109.235 113.218,109.096 112.999 C 108.972 112.804,108.882 112.929,108.789 113.424 C 108.716 113.810,108.468 114.329,108.237 114.577 C 107.973 114.860,107.864 115.173,107.942 115.420 C 108.029 115.693,107.933 115.885,107.627 116.049 C 107.309 116.219,107.213 116.422,107.281 116.781 C 107.359 117.191,107.325 117.235,107.085 117.035 C 106.925 116.902,106.817 116.879,106.846 116.982 C 106.933 117.295,106.599 118.093,106.381 118.093 C 106.269 118.093,106.235 118.186,106.304 118.298 C 106.374 118.411,106.345 118.503,106.239 118.503 C 106.133 118.503,105.932 118.780,105.792 119.118 C 105.652 119.457,105.456 119.733,105.357 119.733 C 105.258 119.733,105.188 119.803,105.201 119.887 C 105.285 120.418,105.145 121.173,104.982 121.072 C 104.790 120.954,104.326 121.613,104.378 121.929 C 104.459 122.415,104.328 122.636,104.026 122.521 C 103.792 122.431,103.730 122.482,103.813 122.698 C 103.880 122.872,103.751 123.128,103.513 123.294 C 103.216 123.502,103.167 123.630,103.343 123.738 C 103.523 123.850,103.500 123.941,103.255 124.078 C 103.072 124.180,102.922 124.384,102.922 124.530 C 102.922 124.676,102.737 124.962,102.512 125.167 C 102.060 125.575,101.952 125.993,102.358 125.764 C 102.555 125.652,102.559 125.679,102.373 125.880 C 102.241 126.023,101.895 126.140,101.604 126.140 C 101.299 126.140,101.076 126.257,101.076 126.416 C 101.076 126.576,100.948 126.642,100.771 126.574 C 100.601 126.509,100.412 126.593,100.347 126.763 C 100.273 126.957,100.072 127.028,99.801 126.957 C 99.504 126.879,99.418 126.919,99.522 127.087 C 99.604 127.220,99.353 127.150,98.963 126.931 C 98.511 126.677,98.172 126.602,98.027 126.723 C 97.902 126.827,97.840 126.855,97.890 126.784 C 98.059 126.546,97.420 126.089,97.094 126.214 C 96.889 126.293,96.771 126.226,96.771 126.032 C 96.771 125.864,96.533 125.570,96.242 125.380 C 95.920 125.169,95.759 124.915,95.830 124.731 C 95.895 124.560,95.857 124.482,95.743 124.553 C 95.630 124.623,95.541 124.447,95.541 124.154 C 95.541 123.865,95.459 123.629,95.358 123.629 C 95.257 123.629,95.028 123.260,94.847 122.809 C 94.667 122.358,94.426 121.989,94.312 121.989 C 94.199 121.989,94.106 121.855,94.106 121.691 C 94.106 121.133,93.647 120.384,93.240 120.277 C 93.007 120.216,92.894 120.074,92.976 119.942 C 93.141 119.675,92.514 118.244,92.292 118.381 C 92.210 118.432,92.123 118.227,92.098 117.925 C 92.074 117.623,91.939 117.283,91.799 117.171 C 91.658 117.058,91.511 116.781,91.471 116.556 C 91.432 116.330,91.337 116.099,91.262 116.043 C 91.186 115.987,91.011 115.682,90.871 115.365 C 90.732 115.049,90.528 114.846,90.417 114.915 C 90.301 114.986,90.267 114.903,90.337 114.721 C 90.404 114.546,90.352 114.403,90.220 114.403 C 90.089 114.403,90.033 114.318,90.097 114.215 C 90.161 114.112,90.123 113.997,90.012 113.959 C 89.902 113.921,89.782 113.706,89.745 113.480 C 89.708 113.255,89.547 112.840,89.387 112.558 C 89.228 112.276,89.086 111.999,89.072 111.943 C 88.957 111.470,88.694 111.148,88.514 111.260 C 88.377 111.344,88.344 111.268,88.426 111.054 C 88.498 110.866,88.468 110.712,88.359 110.712 C 88.249 110.712,88.160 110.820,88.160 110.952 C 88.160 111.083,88.101 111.132,88.028 111.059 C 87.956 110.987,88.008 110.793,88.144 110.629 C 88.344 110.388,88.309 110.287,87.962 110.101 C 87.726 109.975,87.577 109.801,87.630 109.715 C 87.759 109.507,86.819 107.561,86.437 107.244 C 86.272 107.106,86.077 106.724,86.005 106.395 C 85.932 106.066,85.788 105.744,85.684 105.680 C 85.580 105.615,85.495 105.426,85.495 105.258 C 85.495 105.091,85.264 104.705,84.982 104.401 C 84.700 104.097,84.470 103.703,84.470 103.526 C 84.470 103.349,84.291 103.012,84.072 102.777 C 83.853 102.542,83.730 102.294,83.799 102.225 C 83.868 102.156,83.723 101.886,83.477 101.624 C 83.232 101.363,83.091 101.088,83.164 101.015 C 83.238 100.941,83.152 100.825,82.974 100.757 C 82.796 100.688,82.696 100.514,82.751 100.369 C 82.807 100.224,82.565 99.680,82.213 99.159 C 81.862 98.638,81.560 98.019,81.542 97.782 C 81.524 97.546,81.333 97.258,81.117 97.142 C 80.798 96.972,80.778 96.898,81.008 96.752 C 81.230 96.611,81.209 96.571,80.911 96.569 C 80.666 96.567,80.570 96.461,80.642 96.273 C 80.704 96.112,80.622 95.870,80.459 95.736 C 80.297 95.601,80.164 95.363,80.164 95.208 C 80.164 95.053,80.072 94.926,79.959 94.926 C 79.846 94.926,79.754 94.784,79.754 94.612 C 79.754 94.439,79.635 94.252,79.490 94.196 C 79.344 94.141,79.211 93.898,79.192 93.657 C 79.174 93.417,79.077 93.165,78.976 93.099 C 78.875 93.032,78.729 92.720,78.652 92.406 C 78.565 92.050,78.423 91.888,78.278 91.978 C 78.122 92.074,78.089 92.006,78.178 91.774 C 78.262 91.554,78.195 91.380,77.996 91.304 C 77.822 91.237,77.726 91.063,77.782 90.916 C 77.838 90.770,77.753 90.541,77.591 90.407 C 77.430 90.273,77.349 90.082,77.411 89.982 C 77.472 89.882,77.425 89.800,77.306 89.800 C 77.186 89.800,77.089 89.616,77.089 89.390 C 77.089 89.165,76.991 88.980,76.872 88.980 C 76.752 88.980,76.711 88.888,76.781 88.775 C 76.851 88.662,76.821 88.570,76.715 88.570 C 76.529 88.570,76.200 87.813,76.246 87.494 C 76.259 87.409,76.130 87.340,75.961 87.340 C 75.792 87.340,75.654 87.201,75.654 87.032 C 75.654 86.863,75.555 86.725,75.436 86.725 C 75.316 86.725,75.247 86.517,75.282 86.263 C 75.317 86.010,75.254 85.817,75.141 85.836 C 75.028 85.855,74.909 85.491,74.877 85.028 C 74.844 84.564,74.706 84.047,74.569 83.878 C 74.368 83.629,74.375 83.603,74.606 83.742 C 74.836 83.881,74.864 83.775,74.754 83.190 C 74.650 82.635,74.694 82.438,74.941 82.343 C 75.118 82.275,75.235 82.059,75.202 81.863 C 75.167 81.661,75.274 81.499,75.448 81.490 C 75.955 81.462,76.479 81.159,76.358 80.963 C 76.295 80.862,76.388 80.779,76.564 80.779 C 76.740 80.779,76.884 80.710,76.884 80.625 C 76.884 80.541,86.725 80.497,98.754 80.529 C 113.552 80.568,120.692 80.518,120.835 80.375 C 121.108 80.101,121.232 80.109,121.568 80.420 M298.565 98.360 C 296.281 98.393,292.545 98.393,290.261 98.360 C 287.978 98.327,289.846 98.300,294.413 98.300 C 298.980 98.300,300.848 98.327,298.565 98.360 " stroke="none" fill="#ff3366" fill-rule="evenodd"></path></g></svg>